Patient4_TMGait_0pt5_02_left_27_EMG.mot
version=1
nRows=30
nColumns=33
inDegrees=no
endheader
time	1LAddLong	2LGlutMax	3LGlutMed	4LIliopsoas	5LSemiMemb	6LBicFemLong	7LRecFem	8LVastMed	9LVastLat	10LGasMed	11LTibAnt	12lTibPost	13LPeroneusLong	14LSol	15LExtDigLong	16LFlexDigLong	17RAddLong	18RGlutMax	19RGlutMed	20RIliopsoas	21RSemiMemb	22RBicFemLong	23RRecFem	24RVastMed	25RVastLat	26RGasMed	27RTibAnt	28RTibPost	29RPeroneusLong	30RSol	31RExtDigLong	32RFlexDigLong
34.937	0.026398	0.10361	-0.27039	0.002747	0.067444	-0.49622	0.42648	0.004578	-0.2832	-0.049896	0.002441	0.019226	0.11261	-0.044556	0.018768	-0.018616	0.039825	0.41794	-0.073242	-0.098419	-0.026855	0.1265	0.3569	-0.069122	0.032196	-0.045319	0.017395	-0.068207	0.89706	0.18005	-0.003815	-0.006409
34.938	0.023956	0.26611	-0.3035	0.016022	0.052643	-0.70664	0.42435	0.024261	-0.27084	-0.068207	-0.01358	0.009766	-0.21057	0.033417	0.095062	-0.015717	0.049286	0.39749	-0.081482	-0.10696	-0.036011	0.084229	0.41031	-0.089569	0.025787	-0.03006	0.025024	-0.091553	0.48355	-0.001373	-0.000305	-0.00473
34.939	-0.035248	0.37796	-0.10162	0.018921	0.041351	-0.48218	0.37415	0.028992	-0.28046	-0.080109	-0.045624	0.00946	-0.095215	-0.084229	0.003357	-0.017395	0.032806	0.41534	-0.045776	-0.095825	-0.039978	0.097198	0.40726	-0.079803	0.031128	-0.027313	0.043335	-0.091858	0.12772	-0.19104	-0.001678	0.00061
34.94	0.097809	0.45425	0.10925	0.002594	0.014343	-0.21896	0.29022	0.027008	-0.26977	-0.097198	-0.076752	0.014648	0.17319	-0.22736	-0.11429	-0.010681	0.075989	0.48675	-0.006714	-0.057831	-0.047455	0.072174	0.46234	-0.079498	0.029602	0.003204	0.024567	-0.094147	0.14694	-0.34759	-0.00061	-0.011902
34.941	-0.01236	0.59006	0.1767	0.016327	-0.037384	-0.049133	0.21896	0.020142	-0.20264	-0.090332	-0.063782	0.00885	0.10284	-0.16754	-0.070343	-0.007935	0.096588	0.50323	0.005646	-0.0354	-0.048981	0.056152	0.48325	-0.050201	0.020142	0.009766	-0.002747	-0.088196	0.6926	-0.27023	-0.002441	-0.002441
34.942	0.027466	0.75684	0.15045	0.022888	-0.085297	-0.022736	0.16312	0.015106	-0.11993	-0.011292	0.014191	0.011139	0.09201	-0.091553	-0.018616	-0.00351	0.086212	0.49866	-0.00351	-0.012512	-0.050049	0.041199	0.51346	-0.063019	0.018311	0.013123	-0.015869	-0.09903	0.29831	-0.26886	0.002747	-0.007629
34.943	0.054474	0.81589	0.15121	0.019531	-0.083008	-0.046082	0.16098	0.005798	-0.018921	0.040283	0.018768	0.005798	0.14725	0.015411	-0.008392	0.006714	0.050049	0.42893	-0.034943	0.019226	-0.054474	0.019226	0.47089	-0.084534	0.017853	-0.009155	0.008392	-0.11673	-0.29877	-0.051575	0.000305	-0.018463
34.944	-0.029449	0.79834	0.034027	0.019379	-0.052795	-0.001068	0.13489	0.001526	-0.015564	0.084229	-0.04364	0.012512	0.13931	0.039215	0.003357	0.014343	0.036926	0.41946	-0.084076	0.046387	-0.050659	0.009003	0.48416	-0.0737	0.03418	-0.019989	0.019379	-0.069427	-0.1683	-0.084991	0.001678	-0.010223
34.945	0.025024	0.78766	0.015869	0.003662	-0.010071	0.056458	0.26001	0.0177	-0.027008	0.12268	-0.056915	0.012817	0.050659	-0.15503	0.010529	0.006866	-0.010376	0.44159	-0.14206	0.027008	-0.036316	0.001984	0.48004	-0.099487	0.040436	-0.005188	0.003357	-0.080261	0.10941	-0.28168	-0.001678	-0.003662
34.946	0.001526	0.70602	0.011444	-0.002136	0.040283	0.088348	0.38238	0.025024	-0.075378	0.15213	0.039368	0.011597	-0.045166	-0.28519	0.010529	0.006866	0.0383	0.46631	-0.14893	-0.026398	-0.044403	-0.024719	0.50278	-0.051727	0.04364	0.00824	-0.025024	-0.080414	0.021515	-0.31982	-0.003357	-0.007629
34.947	-0.003204	0.6247	0.062561	0.008545	0.012665	0.020142	0.42526	0.021362	-0.046844	0.12375	0.036316	0.016174	-0.04425	-0.26901	0.010071	0.012665	0.041351	0.48248	-0.14786	-0.02243	-0.057983	-0.021667	0.51483	-0.089569	0.035858	0.002594	-0.003815	-0.068512	-0.019073	-0.13504	-0.001221	-0.00946
34.948	-0.006714	0.61066	0.099182	0.007019	-0.03418	0.016632	0.42633	0.035095	-0.055084	0.089111	0.009918	0.014038	-0.067749	-0.32044	-0.006104	0.014954	0.029144	0.46951	-0.16205	-0.007324	-0.085144	-0.025482	0.52597	-0.084076	0.027161	0.007477	0.00824	-0.050507	-0.19669	-0.022888	-0.00061	-0.010376
34.949	0.013885	0.52185	-0.092621	0.009003	-0.048981	0.010681	0.47272	0.02243	-0.058746	0.016174	-0.026703	0.015411	-0.12009	-0.17639	-0.027618	0.018921	0.078735	0.48981	-0.16525	-0.007172	-0.084839	-0.090332	0.52856	-0.12665	0.026245	0.007019	-0.014343	-0.061493	-0.26291	0.038605	0	-0.012817
34.95	0.010834	0.48431	-0.18326	0.013733	-0.042877	-0.038605	0.49545	0.022278	-0.045624	-0.019684	0.014496	0.013733	-0.074615	-0.061646	0.30243	0.018463	0.007019	0.513	-0.121	0.023041	-0.072327	-0.022583	0.59235	-0.088043	0.020447	0.012665	-0.024872	-0.19928	0.028992	-0.027466	-0.005646	-0.012207
34.951	0.029755	0.40146	-0.14267	0.005188	-0.028839	-0.051117	0.45578	0.018311	-0.029297	-0.064087	0.12497	0.007477	-0.040894	-0.062561	0.005646	0.00473	-0.001678	0.43381	-0.068054	-0.041046	-0.043488	0.018616	0.59357	-0.073395	0.021515	-0.001068	0.023499	0.024109	-0.066528	-0.11765	0.001984	-0.01358
34.952	0.015869	0.29907	-0.029449	-0.003204	0.021515	0.007782	0.466	0.009766	-0.001221	-0.075989	0.15839	0.014648	0.046387	-0.13534	0.20508	-1.3295	-0.029449	0.44449	-0.040588	-0.011139	-0.058289	-0.024109	0.59662	-0.094757	-0.002289	-0.001068	0.018463	-0.016785	-0.10574	-0.12436	0.000763	-0.012054
34.953	0.014038	0.23636	-0.086365	0.001373	0.012817	0.019379	0.4953	-0.001678	-0.021362	-0.097504	0.22003	0.01236	0.10605	-0.11368	0.46432	0.31448	-0.084076	0.40848	-0.027924	0.026703	-0.058289	-0.028687	0.6247	-0.073242	-0.007019	0.005798	0.025787	-0.041809	-0.16174	-0.073547	-0.001984	-0.014648
34.954	-0.005035	0.22736	-0.18082	0.016632	-0.016632	-0.12283	0.56778	-0.011902	-0.022583	0.014801	0.06958	0.01236	0.092468	0.030518	0.2623	0.80872	-0.13214	0.43778	-0.020599	-0.000458	-0.050049	0.001526	0.57144	-0.038452	0.000916	0.004578	0.005493	-0.03067	-0.12222	-0.17487	-0.007172	-0.01709
34.955	-0.012207	0.21759	-0.16037	0.006104	-0.052948	-0.057068	0.54596	-0.010376	-0.02655	0.005188	-0.10544	0.009613	0.033722	0.17777	-0.091858	-0.39993	-0.16388	0.40115	-0.01236	0.036163	-0.07019	0.041656	0.57449	0.006866	0.007782	0.003967	0.001373	-0.034332	-0.13229	-0.24262	0.00061	-0.0177
34.956	-0.000153	0.20844	-0.31677	0.0354	-0.11749	-0.011444	0.50308	0.007172	-0.062408	0.005188	-0.021362	0.013123	-0.044556	0.14435	-0.34729	-0.070038	-0.16419	0.34241	-0.048828	0.079956	-0.033875	0.074463	0.56427	0.052643	0.006561	0.003662	0.058136	-0.025177	-0.11566	-0.11475	-0.001831	-0.020905
34.957	-0.006256	0.2446	-0.3688	0.03418	-0.1564	0.011139	0.43167	0.022583	-0.045471	0.023956	0.005798	0.017853	-0.075226	0.11414	-0.44968	0.64682	-0.085144	0.35278	-0.015106	0.074921	-0.014343	0.040283	0.53894	0.048218	0.017395	0.008698	0.075531	-0.028534	-0.10605	0.069733	0.001678	-0.018005
34.958	0.00412	0.31281	-0.19592	-0.000153	-0.12817	0.000763	0.38376	0.023651	-0.009155	0.022888	-0.03891	0.020142	0.001831	0.089264	-0.42709	-0.097046	-0.035553	0.3009	-0.019226	0.057831	0.006409	0.019379	0.52261	0.019531	0.001678	-0.003967	0.043335	-0.021667	-0.081329	0.027313	0.000458	-0.014496
34.959	0.013428	0.39566	0.020294	0.004578	0.020752	-0.034027	0.30533	0.027771	0.015869	0.034332	-0.028839	0.022278	0.018311	0.10681	-0.29755	-0.050354	-0.006561	0.2623	0.061188	-0.001068	0.02594	0.021362	0.48675	0.021515	0.003052	0.005341	0.008545	-0.02533	-0.036469	-0.078125	0.003662	-0.018158
34.96	0.011444	0.48553	0.049133	-0.007324	0.09079	-0.036316	0.24094	0.023956	-0.013733	0.022125	-0.033722	0.02243	-0.00061	0.094757	-0.13397	0.16678	0.000153	0.21103	0.016022	-0.054474	0.057831	0.022888	0.4335	-0.011902	0.019073	-0.000305	-0.16022	-0.021667	-0.082703	-0.14389	0.001068	-0.014038
34.961	0.01297	0.59021	0.10208	0.006104	0.007172	-0.018921	0.15045	0.017853	0.018311	0.014801	-0.075836	0.019836	-0.009308	-0.015106	-0.06012	0.12817	-0.022888	0.13565	-0.003815	-0.079193	0.028687	0.00061	0.43106	-0.016174	0.016937	-0.000305	-0.13931	-0.016632	-0.10117	-0.18692	0.001068	-0.001068
34.962	0.021057	0.59341	0.13992	0.016785	-0.042114	0.043182	0.10925	0.003662	0.04715	-0.001831	-0.093079	0.016937	-0.013275	-0.042267	0.009766	0.04425	-0.033112	0.046997	-0.023499	-0.11246	0.003967	0.027008	0.41092	-0.09613	0.01709	-0.000153	0.067749	-0.01358	-0.10315	-0.21362	0.002899	-0.002594
34.963	0.018463	0.65231	0.17761	0.027466	0.051117	0.1445	0.070648	0.004883	-0.009003	-0.01709	-0.066681	0.021362	0.025024	-0.1004	0.063324	-0.36743	-0.025177	-0.015411	0.027313	-0.09552	-0.027618	0.006256	0.45914	-0.10956	0.002747	-0.001068	0.24323	-0.016022	-0.11734	-0.20935	0.001373	-0.005493
34.964	0.019073	0.76233	0.18723	0.017242	0.044861	0.1619	-0.042572	0.030518	-0.076294	-0.007782	-0.045471	0.029449	0.045929	-0.1236	0.071411	-0.50644	-0.012207	-0.081329	0.025635	-0.031281	-0.046997	-0.045319	0.50964	-0.1799	-0.00885	-0.006714	0.26321	-0.013428	-0.13626	-0.19287	0	-0.007477
34.965	0.021362	0.72113	0.050049	0.018768	0.03952	0.23377	-0.094452	0.026245	-0.070648	0.041199	-0.020752	0.029755	0.021515	-0.095367	0.046844	0.15808	-0.001221	-0.075836	-0.002289	0.00061	-0.032349	-0.069885	0.49637	-0.17838	-0.004883	-0.001221	0.17746	-0.00824	-0.19699	-0.19516	-0.00061	-0.010834
34.966	0.025024	0.59921	-0.072937	0.006256	0.006866	0.2475	-0.14358	0.013123	-0.081177	0.043793	-0.00946	0.032654	0.007629	-0.009918	0.027466	0.24307	0.02243	-0.19073	-0.044403	-0.04837	-0.036469	-0.08728	0.45471	-0.20416	-0.016022	-0.005493	0.24551	-0.008392	-0.16159	-0.21835	0.000763	-0.007172
